<?xml version="1.0" encoding="UTF-8"?><svg id="Layer_2" xmlns="http://www.w3.org/2000/svg" viewBox="0 0 169.78 159.21"><defs><style>.cls-1{fill:#fff;stroke:#fff;stroke-miterlimit:10;stroke-width:.7px;}</style></defs><g id="Layer_3"><g><path id="Icon_awesome-car-alt" d="M156.99,62.42c-1.25-.7-2.19-1.97-2.71-3.47l-3.1-9.1-7.04-20.64C138.17,11.53,123.57-.06,107.35,0H62.43C46.22-.06,31.63,11.52,25.66,29.19l-7.04,20.64-3.1,9.1c-.51,1.51-1.46,2.77-2.71,3.47C5.04,66.77,0,76,0,86.24v19.9c.02,5.68,1.6,11.17,4.48,15.68,.75,1.17,1.18,2.58,1.18,4.05v13.43c0,10.99,7.6,19.9,16.97,19.9h.01c9.37,0,16.97-8.91,16.97-19.9h0c0-3.66,2.53-6.63,5.65-6.63H124.51c3.12,0,5.65,2.97,5.65,6.63h0c0,11,7.6,19.91,16.97,19.91h.01c9.37,0,16.97-8.91,16.97-19.9v-13.43c0-1.47,.43-2.88,1.18-4.05,2.88-4.52,4.46-10.02,4.48-15.7v-19.9c-.01-10.22-5.03-19.45-12.79-23.82ZM46.66,39.04c2.58-7.56,8.82-12.51,15.77-12.51h44.92c6.94,0,13.19,4.95,15.77,12.51l7.04,20.64H39.61l7.04-20.64h.01ZM28.3,106.06c-5.88,.43-10.95-4.81-11.32-11.71-.03-.5-.03-1.01,0-1.51-.35-6.9,4.14-12.82,10.03-13.23,.43-.03,.86-.03,1.29,0,6.79,0,16.98,11.91,16.98,19.84s-10.19,6.62-16.98,6.62Zm113.19,0c-6.79,0-16.98,1.32-16.98-6.61s10.19-19.84,16.98-19.84c5.88-.43,10.95,4.81,11.32,11.71,.03,.5,.03,1.01,0,1.51,.35,6.9-4.14,12.82-10.03,13.23-.43,.03-.86,.03-1.29,0Z"/><circle class="cls-1" cx="138.46" cy="93.13" r="15.45"/><circle class="cls-1" cx="31.1" cy="93.13" r="15.45"/></g></g></svg>