<?xml version="1.0" encoding="UTF-8"?><svg id="Layer_2" xmlns="http://www.w3.org/2000/svg" viewBox="0 0 169.78 159.21"><defs><style>.cls-1{fill:#fff;}</style></defs><g id="Layer_3"><path class="cls-1" d="M156.99,62.42c-1.25-.7-2.19-1.97-2.71-3.47l-3.1-9.1-7.04-20.64C138.17,11.53,123.57-.06,107.35,0H62.43C46.22-.06,31.63,11.52,25.66,29.19l-7.04,20.64-3.1,9.1c-.51,1.51-1.46,2.77-2.71,3.47C5.04,66.77,0,76,0,86.24v19.9c.02,5.68,1.6,11.17,4.48,15.68,.75,1.17,1.18,2.58,1.18,4.05v13.43c0,10.99,7.6,19.9,16.97,19.9h.01c9.37,0,16.97-8.91,16.97-19.9h0c0-3.66,2.53-6.63,5.65-6.63H124.51c3.12,0,5.65,2.97,5.65,6.63h0c0,11,7.6,19.91,16.97,19.91h.01c9.37,0,16.97-8.91,16.97-19.9v-13.43c0-1.47,.43-2.88,1.18-4.05,2.88-4.52,4.46-10.02,4.48-15.7v-19.9c-.01-10.22-5.03-19.45-12.79-23.82ZM46.65,39.04h.01c2.58-7.56,8.82-12.51,15.77-12.51h44.92c6.94,0,13.19,4.95,15.77,12.51l7.04,20.64H39.61l7.04-20.64Zm-1.76,62.76c-.48,1.34-1.4,2.28-2.6,2.92-2.72,2.4-6.28,3.86-10.2,3.86-8.54,0-15.45-6.92-15.45-15.45,0-1.86,.35-3.64,.95-5.3,.8-2.6,2.32-4.8,4.29-6.28,2.72-2.41,6.29-3.88,10.21-3.88,8.54,0,15.45,6.92,15.45,15.45,0,3.21-.98,6.2-2.66,8.67Zm92.57,6.78c-4.13,0-7.87-1.63-10.64-4.27-.69-.48-1.25-1.09-1.65-1.85-1.98-2.6-3.16-5.83-3.16-9.34,0-8.54,6.92-15.45,15.45-15.45,3.52,0,6.76,1.19,9.36,3.18,3.32,1.9,5.7,5.77,5.97,10.4,.07,.62,.13,1.24,.13,1.88,0,1.76-.31,3.45-.85,5.03-.1,.29-.2,.57-.31,.84-.08,.19-.17,.37-.25,.56-.08,.17-.16,.35-.25,.52-2.55,5.04-7.76,8.5-13.79,8.5Z"/></g></svg>