<?xml version="1.0" encoding="UTF-8"?><svg id="Layer_2" xmlns="http://www.w3.org/2000/svg" viewBox="0 0 201.57 172.18"><defs><style>.cls-1{fill:#fff;}</style></defs><g id="Layer_3"><path id="Icon_material-directions-bike" class="cls-1" d="M130.18,33.6c9.54,0,17.22-7.95,16.78-17.59-.39-8.55-7.43-15.59-15.99-15.99-9.64-.44-17.59,7.24-17.59,16.78,.03,9.27,7.53,16.77,16.8,16.8ZM41.99,88.19C18.8,88.19,0,106.99,0,130.18s18.8,41.99,41.99,41.99,41.99-18.8,41.99-41.99-18.8-41.99-41.99-41.99Zm0,71.39c-16.23,0-29.4-13.16-29.4-29.4s13.16-29.4,29.4-29.4,29.4,13.16,29.4,29.4-13.16,29.4-29.4,29.4Zm48.71-83.99l20.16-20.16,6.72,6.72c9.27,9.45,21.39,15.44,34.35,17.14,4.49,.59,8.48-2.86,8.48-7.39h0c0-4.68-3.3-8.76-7.91-9.6-8.43-1.55-16.25-5.68-22.33-11.91l-15.96-15.96c-3.73-3.24-8.5-5.03-13.44-5.04-4.5-.3-8.87,1.57-11.76,5.04l-23.52,23.52c-3.18,3.09-5,7.32-5.04,11.76-.3,4.5,1.57,8.87,5.04,11.76l20.89,18.28c3.81,3.33,5.99,8.14,5.99,13.2v26.87c0,3.96,3.21,7.17,7.17,7.17h2.79c3.78,0,6.84-3.06,6.84-6.84v-37.7c0-4.83-1.86-9.48-5.21-12.97l-13.27-13.88Zm68.87,12.6c-24.18,0-43.58,20.43-41.89,44.97,1.43,20.71,18.2,37.48,38.91,38.91,24.54,1.69,44.97-17.71,44.97-41.89,.23-22.97-18.21-41.77-41.17-41.99-.27,0-.55,0-.82,0Zm0,71.39c-16.86,0-30.4-14.19-29.34-31.27,.91-14.64,12.82-26.55,27.46-27.46,17.08-1.06,31.27,12.48,31.27,29.34-.2,16.15-13.24,29.2-29.4,29.4Z"/></g></svg>