<?xml version="1.0" encoding="UTF-8"?><svg id="Layer_2" xmlns="http://www.w3.org/2000/svg" viewBox="0 0 189.75 209.64"><g id="Layer_3"><g><path d="M3.66,118.17l76.14-45.21c.3-.17,.48-.47,.47-.79l-.89-30.12c-.1-1.53-.16-6.78-.16-8.36,0-19.75,6.9-32.52,15.65-33.49V198.3c-.65,.08-1.29,.22-1.92,.44,0,0-8.42,4.48-17.11,9.09-8.89,4.71-20.31-.24-21.59-9.36,0-2.28,1.18-4.43,3.19-5.85l23.9-17.5c1.05-.74,1.65-1.87,1.62-3.06l-1.41-56.49c0-.51-.48-.91-1.05-.9-.12,0-.25,.02-.36,.06L15.34,134.91c-10.74,3.34-19.98-7.94-12.79-15.77,.43-.46,.82-.8,1.12-.97Z"/><path d="M186.09,117.98l-76.14-45.21c-.3-.17-.48-.47-.47-.79l.89-30.12c.1-1.53,.16-6.78,.16-8.36,0-19.75-6.9-32.52-15.65-33.49V198.1c.65,.08,1.29,.22,1.92,.44,0,0,8.42,4.48,17.11,9.09,8.89,4.71,20.31-.24,21.59-9.36,0-2.28-1.18-4.43-3.19-5.85l-23.9-17.5c-1.05-.74-1.65-1.87-1.62-3.06l1.41-56.49c0-.51,.48-.91,1.05-.9,.12,0,.25,.02,.36,.06l64.81,20.18c10.74,3.34,19.98-7.94,12.79-15.77-.43-.46-.82-.8-1.12-.97Z"/></g></g></svg>