<?xml version="1.0" encoding="UTF-8"?><svg id="Layer_2" xmlns="http://www.w3.org/2000/svg" viewBox="0 0 189.75 209.64"><defs><style>.cls-1{fill:#fff;}</style></defs><g id="Layer_3"><path class="cls-1" d="M187.2,118.94c-.43-.46-.82-.8-1.12-.97l-76.14-45.21c-.3-.17-.48-.47-.47-.79l.89-30.12c.1-1.53,.16-6.78,.16-8.36,0-19.75-6.9-32.52-15.65-33.49V.2c-8.75,.97-15.65,13.74-15.65,33.49,0,1.58,.05,6.83,.16,8.36l.89,30.12c.01,.32-.17,.62-.47,.79L3.66,118.17c-.3,.17-.69,.5-1.12,.97-7.19,7.83,2.05,19.11,12.79,15.77l64.81-20.18c.12-.04,.24-.06,.36-.06,.57,0,1.04,.4,1.05,.9l1.41,56.49c.03,1.19-.57,2.32-1.62,3.06l-23.9,17.5c-2.01,1.42-3.18,3.57-3.19,5.85,1.28,9.12,12.7,14.07,21.59,9.36,8.69-4.6,17.11-9.09,17.11-9.09,.62-.22,1.26-.36,1.92-.44v-.2c.65,.08,1.29,.22,1.92,.44,0,0,8.42,4.48,17.11,9.09,8.89,4.71,20.31-.24,21.59-9.36,0-2.28-1.18-4.43-3.19-5.85l-23.9-17.5c-1.05-.74-1.65-1.87-1.62-3.06l1.41-56.49c0-.51,.48-.91,1.05-.9,.12,0,.25,.02,.36,.06l64.81,20.18c10.74,3.34,19.98-7.94,12.79-15.77Z"/></g></svg>