<?xml version="1.0" encoding="UTF-8"?><svg id="Layer_2" xmlns="http://www.w3.org/2000/svg" viewBox="0 0 116.48 196.47"><g id="Layer_3"><path id="Icon_material-directions-walk" d="M67.2,36.55c9.9,0,17.92-8.18,17.92-18.28C85.12,8.18,77.1,0,67.2,0c-9.89,0-17.91,8.17-17.92,18.26,.02,10.09,8.03,18.26,17.92,18.29Zm-33.15,31.07L11.04,185.79c-1.08,5.53,3.16,10.67,8.8,10.67h.74c4.21,0,7.84-2.92,8.75-7.03l11.11-50.37c1.51-6.85,9.96-9.39,14.99-4.5l4.57,4.44c1.74,1.69,2.72,4.01,2.72,6.43v42.08c0,4.95,4.01,8.96,8.96,8.96h0c4.95,0,8.96-4.01,8.96-8.96v-55.78c0-2.42-.98-4.74-2.72-6.43l-12.61-12.25c-2.17-2.11-3.13-5.18-2.55-8.15l1.36-6.93c1.26-6.43,8.79-9.39,14.06-5.51,8.25,6.07,17.79,10.11,27.86,11.78,5.46,.91,10.44-3.31,10.44-8.85v-.27c0-4.46-3.29-8.14-7.69-8.87-12.74-2.1-24.1-9.83-30.84-21.36l-8.96-14.62c-3.23-5.48-8.96-8.92-15.23-9.14-2.27,0-3.9,.65-5.97,.86-.91,.09-1.8,.32-2.64,.68L5.41,59.82c-3.28,1.42-5.41,4.65-5.41,8.23v28.08c0,4.95,4.01,8.96,8.96,8.96h0c4.95,0,8.96-4.01,8.96-8.96v-16.02c0-3.67,2.24-6.98,5.66-8.33l10.47-4.15"/></g></svg>