<svg xmlns="http://www.w3.org/2000/svg" width="162" height="161" viewBox="0 0 162 161"><defs><style>.cls-1{fill:#005523;}.cls-2{fill:none;stroke:#fff;stroke-miterlimit:10.01;stroke-width:3px;}</style></defs><g id="Layer_3" data-name="Layer 3"><g id="Group_52" data-name="Group 52"><ellipse id="Ellipse_3" data-name="Ellipse 3" class="cls-1" cx="81" cy="80.5" rx="81" ry="80.5"/><g id="Group_35" data-name="Group 35"><path id="Path_39" data-name="Path 39" class="cls-2" d="M130.23,123H31.1V57.07H55.81L55.89,38H104.8L105,56.25l25.2.17Z"/><line id="Line_25" data-name="Line 25" class="cls-2" x1="105.03" y1="55.93" x2="105.03" y2="122.7"/><line id="Line_26" data-name="Line 26" class="cls-2" x1="55.61" y1="57.82" x2="55.89" y2="122.7"/><path id="Path_40" data-name="Path 40" class="cls-2" d="M69.75,122.39H90.92V105.76A13.74,13.74,0,0,0,87.8,96.9a9.25,9.25,0,0,0-7.14-3.2c-7.13-.29-9.65,4.75-10.28,7.9Z"/><path id="Path_41" data-name="Path 41" class="cls-2" d="M112.54,122.39h9.18V111.62a11.82,11.82,0,0,0-1.36-5.74,3.66,3.66,0,0,0-3.09-2.07c-3.09-.18-4.18,3.08-4.46,5.12Z"/><path id="Path_42" data-name="Path 42" class="cls-2" d="M39.15,123h9.18V112.25A11.93,11.93,0,0,0,47,106.51a3.69,3.69,0,0,0-3.1-2.07c-3.09-.18-4.18,3.08-4.46,5.12Z"/><line id="Line_27" data-name="Line 27" class="cls-2" x1="80.66" y1="92.44" x2="80.09" y2="121.13"/><line id="Line_28" data-name="Line 28" class="cls-2" x1="64.08" y1="85.22" x2="74.93" y2="85.22"/><line id="Line_29" data-name="Line 29" class="cls-2" x1="64.08" y1="77.66" x2="74.93" y2="77.66"/><line id="Line_30" data-name="Line 30" class="cls-2" x1="64.08" y1="69.47" x2="74.93" y2="69.47"/><line id="Line_31" data-name="Line 31" class="cls-2" x1="85.5" y1="69.47" x2="96.35" y2="69.47"/><line id="Line_32" data-name="Line 32" class="cls-2" x1="85.5" y1="77.66" x2="96.35" y2="77.66"/><line id="Line_33" data-name="Line 33" class="cls-2" x1="111.33" y1="73.88" x2="122.18" y2="73.88"/><line id="Line_34" data-name="Line 34" class="cls-2" x1="84.87" y1="85.22" x2="95.72" y2="85.22"/><line id="Line_35" data-name="Line 35" class="cls-2" x1="111.33" y1="82.07" x2="122.18" y2="82.07"/><line id="Line_36" data-name="Line 36" class="cls-2" x1="111.33" y1="89.63" x2="122.18" y2="89.63"/><line id="Line_37" data-name="Line 37" class="cls-2" x1="111.33" y1="97.19" x2="122.18" y2="97.19"/><line id="Line_38" data-name="Line 38" class="cls-2" x1="64.08" y1="61.29" x2="74.93" y2="61.29"/><line id="Line_39" data-name="Line 39" class="cls-2" x1="64.08" y1="53.73" x2="74.93" y2="53.73"/><line id="Line_40" data-name="Line 40" class="cls-2" x1="84.87" y1="53.73" x2="95.72" y2="53.73"/><line id="Line_41" data-name="Line 41" class="cls-2" x1="85.5" y1="61.29" x2="96.35" y2="61.29"/><line id="Line_42" data-name="Line 42" class="cls-2" x1="111.33" y1="65.69" x2="122.18" y2="65.69"/><line id="Line_43" data-name="Line 43" class="cls-2" x1="38.6" y1="74.18" x2="49.44" y2="74.18"/><line id="Line_44" data-name="Line 44" class="cls-2" x1="38.6" y1="82.37" x2="49.44" y2="82.37"/><line id="Line_45" data-name="Line 45" class="cls-2" x1="38.6" y1="89.93" x2="49.44" y2="89.93"/><line id="Line_46" data-name="Line 46" class="cls-2" x1="38.6" y1="97.49" x2="49.44" y2="97.49"/><line id="Line_47" data-name="Line 47" class="cls-2" x1="38.6" y1="65.99" x2="49.44" y2="65.99"/><line id="Line_48" data-name="Line 48" class="cls-2" x1="64.42" y1="45.3" x2="95.89" y2="45.3"/></g></g></g></svg>