<svg xmlns="http://www.w3.org/2000/svg" width="161" height="161" viewBox="0 0 161 161"><defs><style>.cls-1{fill:#005523;}.cls-2{fill:none;stroke:#fff;stroke-miterlimit:10.01;stroke-width:4px;}</style></defs><g id="Layer_3" data-name="Layer 3"><g id="Group_50" data-name="Group 50"><circle id="Ellipse_3" data-name="Ellipse 3" class="cls-1" cx="80.5" cy="80.5" r="80.5"/><g id="Group_34" data-name="Group 34"><path id="Path_36" data-name="Path 36" class="cls-2" d="M57,29.93a7.12,7.12,0,0,1,4.3.39c2.92,1.21,7.62,4.36,8,12.09C69.88,53.68,66.06,60,63.2,62.85S60,69,60,72.78s.95,35.92,2.48,44.51,1.43,13.65-3.44,13.94-6.21-3.14-6-7.15,4.4-40.5,3.63-47,0-10.89-2.67-13.76-7.85-8.49-7.08-17.14C47.56,38.17,49.09,31.67,57,29.93Z"/><path id="Path_37" data-name="Path 37" class="cls-2" d="M88.9,29.61s.6,101,0,101.64-6.51-1.06-6.32-4.88,4.4-46.8,4.2-48.14S79.14,71,79.52,64.09,81.09,38.11,88.9,29.61Z"/><path id="Path_38" data-name="Path 38" class="cls-2" d="M100.81,29.61s1,23.93,1.92,21.85,1.73-21.85,1.73-21.85.88,25.08,2.11,21.85,1.73-21.85,1.73-21.85S109.2,53,110,51.46s1.73-21.85,1.73-21.85,2.15,22.25,1.77,26.07c-.19,1.94-2.29,9.37-3.63,11.66s-2.1,9.55-1.53,20.06,2.87,36.87,2.87,38-.46,5.19-3.77,5.84-6.36-1.63-5.79-6.6,3.44-38.59,3.44-38.59S104.74,70.78,103,67c-1.18-2.64-2.74-6.92-3.58-9.31a8.83,8.83,0,0,1-.48-3.6Z"/></g></g></g></svg>