<svg xmlns="http://www.w3.org/2000/svg" width="179.82" height="155.45" viewBox="0 0 179.82 155.45"><defs><style>.cls-1,.cls-2,.cls-4{fill:#fff;}.cls-2,.cls-3,.cls-4,.cls-5,.cls-6{stroke:#fff;}.cls-2{stroke-miterlimit:10;}.cls-3,.cls-5,.cls-6{fill:none;}.cls-3,.cls-4{stroke-miterlimit:10;}.cls-5{stroke-miterlimit:10;}.cls-6{stroke-miterlimit:10;}</style></defs><g id="Layer_3" data-name="Layer 3"><path class="cls-1" d="M.93,76.24l1.35-1.52A8,8,0,0,0,7,76.34c2.11,0,3.16-1,3.16-2.13,0-1.41-1.9-2-3.68-2.59-2.26-.7-4.8-1.65-4.8-4s2.06-3.88,5.55-3.88a9.07,9.07,0,0,1,5,1.53L11,66.8a6.69,6.69,0,0,0-3.68-1.22c-2,0-3,.92-3,2,0,1.31,1.75,1.8,3.57,2.38,2.33.74,4.91,1.55,4.91,4.15,0,2.22-2.07,4.07-5.87,4.07A10.68,10.68,0,0,1,.93,76.24Z"/><path class="cls-1" d="M16.38,72.79V64.11h2.73v8.38c0,2.55.91,3.64,3,3.64,1.64,0,2.78-.69,4.31-2.3V64.11h2.72v13.7H26.93l-.23-2.15h-.09a7.19,7.19,0,0,1-5.31,2.48C17.91,78.14,16.38,76.28,16.38,72.79Z"/><path class="cls-1" d="M34.88,59.32h2.86L45.6,70.94,48,74.77h.13c-.13-1.87-.35-4-.35-5.88V59.32h2.63V77.81H47.5L39.63,66.17l-2.34-3.81h-.14c.14,1.87.36,3.84.36,5.77v9.68H34.88Z"/><path class="cls-1" d="M54.28,76.24l1.34-1.52a8,8,0,0,0,4.75,1.62c2.12,0,3.17-1,3.17-2.13,0-1.41-1.9-2-3.68-2.59-2.26-.7-4.81-1.65-4.81-4s2.07-3.88,5.56-3.88a9,9,0,0,1,5,1.53l-1.3,1.49a6.68,6.68,0,0,0-3.67-1.22c-2,0-3,.92-3,2,0,1.31,1.75,1.8,3.58,2.38,2.32.74,4.91,1.55,4.91,4.15,0,2.22-2.08,4.07-5.88,4.07A10.67,10.67,0,0,1,54.28,76.24Z"/><path class="cls-1" d="M69.76,73.57V66h-2.4V64.25l2.52-.14.33-3.84h2.27v3.84h4.37V66H72.48v7.61c0,1.68.64,2.65,2.49,2.65a6.27,6.27,0,0,0,1.84-.37l.53,1.75a11.34,11.34,0,0,1-3,.5C70.92,78.14,69.76,76.3,69.76,73.57Z"/><path class="cls-1" d="M78.79,74.25c0-3,3-4.47,9.89-5.11,0-1.76-.7-3.46-3.33-3.46a9.86,9.86,0,0,0-4.8,1.47l-1.06-1.59a13.3,13.3,0,0,1,6.32-1.78c3.93,0,5.59,2.22,5.59,5.63v8.4H89.15l-.23-1.64h-.09a9.37,9.37,0,0,1-5.32,2C80.81,78.14,78.79,76.72,78.79,74.25Zm9.89.22V70.66c-5.4.55-7.22,1.68-7.22,3.43,0,1.55,1.24,2.19,2.82,2.19A7.2,7.2,0,0,0,88.68,74.47Z"/><path class="cls-1" d="M96,59.8c0-.91.82-1.49,1.88-1.49s1.88.58,1.88,1.49-.82,1.5-1.88,1.5S96,60.68,96,59.8Zm.5,4.31h2.72v13.7H96.49Z"/><path class="cls-1" d="M104.64,64.11h2.25l.23,2h.09a8.23,8.23,0,0,1,5.4-2.31c3.39,0,4.92,1.86,4.92,5.35v8.68H114.8V69.43c0-2.55-.91-3.64-3-3.64-1.64,0-2.78.71-4.4,2.1v9.92h-2.72Z"/><path class="cls-1" d="M121.76,74.25c0-3,3-4.47,9.89-5.11,0-1.76-.69-3.46-3.32-3.46a9.86,9.86,0,0,0-4.8,1.47l-1.07-1.59a13.31,13.31,0,0,1,6.33-1.78c3.93,0,5.59,2.22,5.59,5.63v8.4h-2.25l-.23-1.64h-.09a9.4,9.4,0,0,1-5.33,2C123.79,78.14,121.76,76.72,121.76,74.25Zm9.89.22V70.66c-5.39.55-7.22,1.68-7.22,3.43,0,1.55,1.24,2.19,2.82,2.19A7.2,7.2,0,0,0,131.65,74.47Z"/><path class="cls-1" d="M142,76.39h-.09l-.25,1.42h-2.18V57.74h2.72v5.49l-.09,2.45a8.9,8.9,0,0,1,5.06-1.9c4.16,0,6.4,2.74,6.4,7,0,4.68-3.3,7.4-7,7.4A7.85,7.85,0,0,1,142,76.39Zm8.75-5.62c0-3-1.21-5-4.24-5a7,7,0,0,0-4.31,1.86v7.18a6.84,6.84,0,0,0,3.93,1.42C148.77,76.19,150.73,74.15,150.73,70.77Z"/><path class="cls-1" d="M157.65,75.06V57.74h2.73V75.23c0,.7.36,1,.76,1a2.59,2.59,0,0,0,.59-.06l.37,1.77a5.06,5.06,0,0,1-1.57.21C158.49,78.14,157.65,77,157.65,75.06Z"/><path class="cls-1" d="M164.9,71a7.1,7.1,0,0,1,7.24-7.2c4.11,0,6.43,2.5,6.43,6.42a6.2,6.2,0,0,1-.13,1.32H167.6c.19,2.9,2.28,4.78,5.35,4.78a7.9,7.9,0,0,0,4-1.1l1,1.52a10.6,10.6,0,0,1-5.32,1.42C168.32,78.14,164.9,75.48,164.9,71Zm11.26-1.12c0-2.75-1.45-4.24-4-4.24a4.6,4.6,0,0,0-4.62,4.24Z"/><path id="Path_2" data-name="Path 2" class="cls-2" d="M64.47,125v-4S33.87,114,22.12,84C22.12,84,30.07,112.64,64.47,125Z"/><path class="cls-3" d="M157.68,141.06c-.59-1.13-2.37-2.22-3-3.86s.59-6,.59-7.11-5.92-23-7.69-25.14A29.51,29.51,0,0,0,118,95.11s-36.69,22.41-39.06,23-13.61,2.74-14.2,2.74a.55.55,0,0,0-.59.5v0l.3,1.63c.19,0,.09,2.21.29,2.2,0,0,8.29.55,8.88.55s5.33-.55,5.33,1.09l2.36.55,0-.09a1.67,1.67,0,0,1,1.8-.8c1.32.25,3.31.73,4.07,1.44l2.37,2.18s3.55,2.19,4.14,1.64.6-2.18,1.78-2.18,14.79.54,16,7.65c0,0,13,4.37,13.61,4.92s3,2.18,3.55,2.18,13,5.47,29-2.18C157.68,142.12,158.27,142.19,157.68,141.06Z"/><path id="Path_4" data-name="Path 4" class="cls-3" d="M147.3,118.7s2.18.55,1.64-2.18-1.64-9.3-3.83-12.58-16.4-3.82-18.58-2.73,2.73,16.4,3.82,17S147.3,118.7,147.3,118.7Z"/><path id="Path_5" data-name="Path 5" class="cls-3" d="M91.91,120.34s24.73,0,26.3-1.08,2.12-2.74,1-4.93-5.47-7.11-7.11-7.65-17.49,4.37-18.59,6S90.27,118.16,91.91,120.34Z"/><path id="Path_6" data-name="Path 6" class="cls-3" d="M83.84,116s1.1-1.09,1.64.55c0,0,0,3.82-.54,4.37s-7.11,1.09-7.65.55-.55-1.16,0-2S83.84,116,83.84,116Z"/><path id="Path_7" data-name="Path 7" class="cls-3" d="M72.86,121.66s-4.59.23-4.73,0,.14-1.25,0-1,4.78-1.4,4.78-.85S73.36,121.34,72.86,121.66Z"/><path id="Path_8" data-name="Path 8" class="cls-3" d="M127.59,120.89s2.18,7.1,3.28,7.65,3.82,2.18,7.1.55-3.28-3.83-3.82-4.92-.84-2.74-1.78-3.28S127.59,119.25,127.59,120.89Z"/><path id="Path_9" data-name="Path 9" class="cls-3" d="M150.13,127.7s2.65-.25,2.65-1.34-.47-7.09-1.33-6.55-1.78.43-1.32,1.58.72,1.69.32,2.51-1.44.66-1.47,1.56S149.12,127.39,150.13,127.7Z"/><path id="Path_10" data-name="Path 10" class="cls-3" d="M157.94,143.51s-3,1.43-4.07,1.43l9.84,4.37,3.82-.54V147.6Z"/><path class="cls-3" d="M108.27,139.48c.07-2.74-2.08-4.43-3.14-6s-5.94-2.44-7.58-2.48-2.24,2.13-3.33,2.1-5.4-2.62-5.4-2.62-1.07-1.36-2.13-2.48a3.25,3.25,0,0,0-3.19-.91,1.47,1.47,0,0,0-.64.81,9.49,9.49,0,0,1-2.72-.61c-1.62-.59-1.08-.57-1.61-1.13a3.38,3.38,0,0,0-2.26-.61.87.87,0,0,0-.83.5l-4.36-.63-3.46-.08v.23a4.14,4.14,0,0,1,.79.19c4.49-.38,15.11,3.32,17.14,4.4S136.87,155,136.87,155l4.38,0,0-1.5Z"/><path id="Path_16" data-name="Path 16" class="cls-4" d="M35.38,22.11l0,31.32s.7,1.85,1.43,0V22.11S36.34,21,35.38,22.11Z"/><ellipse id="Ellipse_1" data-name="Ellipse 1" class="cls-5" cx="25.52" cy="17.78" rx="4.49" ry="3.39" transform="translate(2.97 39.19) rotate(-78.38)"/><path id="Path_13" data-name="Path 13" class="cls-3" d="M22.48,22.14a.83.83,0,0,0-1,.49c-1,2.61-4.54,12.06-1.89,14.45,3.08,2.78,7.1,6.17,7.1,6.17S24.89,53.08,26,54.18s2.51,1,2.87,0S31.65,42,31.34,40.93,25,35.1,25,35.1l2.46-10.85a.78.78,0,0,0-.57-.94Z"/><path id="Path_14" data-name="Path 14" class="cls-3" d="M19.31,37.7s-1.47,6.07-2.72,7.35a52.41,52.41,0,0,0-5,7.37,1.72,1.72,0,0,0,.71,1.74c.84.51,1.37.78,2.2,0s8.32-7.83,7.69-13.92Z"/><path id="Path_15" data-name="Path 15" class="cls-3" d="M21.47,22.27s-1.62-3.09-5-.31-4.61,6.11-4.6,7.37.93,4.66,3.71,4.35,2.78-.92,2.78-.92Z"/><path id="Path_17" data-name="Path 17" class="cls-3" d="M27.18,28.11s3.24,3.28,4.16,3,6.79-3.64,7.1-4.56.62-1.71,0-1.79-5.25,2.1-5.86,2.71S28,24.12,28,24.12Z"/><path id="Path_20" data-name="Path 20" class="cls-3" d="M35.45,26.62l0,0-.06,0,.28-.11.08-.05s0,0,0,0l-.32.17"/><path id="Path_30" data-name="Path 30" class="cls-1" d="M36.08,13.53,39.82,16S67.48-8.34,104.54,4.79C104.54,4.79,71.6-10.49,36.08,13.53Z"/><path id="Path_1" data-name="Path 1" class="cls-6" d="M144.79,33.13l8.66-6.88-10.54,1.31L135,21.91l1.84-3.08,2.09,1.58,1.61-2L139,17S149.51,7,149.16,5.79s-16.41,6.44-16.41,6.44L130.19,10l-2.08,1.31,1.4,2L126,15.15s-13-9.82-16.85-8.87S122,20.42,122,20.42l-.78,3.87L117.87,23l-.46,2.22,3.83,1.93s-2.54,21.37-.93,19.4,7.39-13.66,7.39-13.66l1.92.58.92-1.54-2.21-1,2.06-4.19,8.49,5.77,2.72,10.35Z"/><path class="cls-1" d="M162.86,54.18A74.76,74.76,0,0,0,156.25,36l-3.81,2.66a63.48,63.48,0,0,1,7,15.45C160.6,54.14,161.73,54.17,162.86,54.18Z"/><path class="cls-1" d="M161.11,81.49a48.74,48.74,0,0,1-10.32,20.87s7.72-7.49,11.48-20.87Z"/></g></svg>