<?xml version="1.0" encoding="utf-8"?>
<!-- Generator: Adobe Illustrator 26.3.1, SVG Export Plug-In . SVG Version: 6.00 Build 0)  -->
<svg version="1.1" id="Layer_1" xmlns="http://www.w3.org/2000/svg" xmlns:xlink="http://www.w3.org/1999/xlink" x="0px" y="0px"
	 viewBox="0 0 177.6 155.4" style="enable-background:new 0 0 177.6 155.4;" xml:space="preserve">
<style type="text/css">
	.st0{fill:#005237;}
	.st1{fill:#005237;stroke:#005237;stroke-miterlimit:10;}
	.st2{fill:none;stroke:#005237;stroke-miterlimit:10;}
</style>
<g id="Layer_2_00000097479160766722966960000004089678121155129990_">
	<g id="Layer_3">
		<path class="st0" d="M0,75.9l1.4-1.5c1.4,1,3,1.6,4.7,1.6c2.1,0,3.2-1,3.2-2.1c0-1.4-1.9-2-3.7-2.6c-2.3-0.7-4.8-1.7-4.8-4
			s2.1-3.9,5.6-3.9c1.8,0,3.5,0.5,5,1.5l-1.2,1.5c-1.1-0.8-2.4-1.2-3.7-1.2c-2,0-3,0.9-3,2c0,1.3,1.8,1.8,3.6,2.4
			c2.3,0.7,4.9,1.6,4.9,4.2c0,2.2-2.1,4.1-5.9,4.1C3.9,77.8,1.8,77.1,0,75.9z"/>
		<path class="st0" d="M15.4,72.4v-8.7h2.7v8.4c0,2.6,0.9,3.6,3,3.6c1.6,0,2.8-0.7,4.3-2.3v-9.7h2.7v13.7H26l-0.2-2.2h-0.1
			c-1.3,1.5-3.3,2.4-5.3,2.5C17,77.8,15.4,75.9,15.4,72.4z"/>
		<path class="st0" d="M33.9,59h2.9l7.9,11.6l2.4,3.8h0.1c-0.1-1.9-0.3-4-0.3-5.9V59h2.6v18.5h-2.9l-7.9-11.6L36.4,62h-0.1
			c0.1,1.9,0.4,3.8,0.4,5.8v9.7h-2.6V59z"/>
		<path class="st0" d="M53.3,75.9l1.3-1.5c1.4,1,3,1.6,4.8,1.6c2.1,0,3.2-1,3.2-2.1c0-1.4-1.9-2-3.7-2.6c-2.3-0.7-4.8-1.7-4.8-4
			s2.1-3.9,5.6-3.9c1.8,0,3.5,0.5,5,1.5l-1.3,1.5c-1.1-0.8-2.4-1.2-3.7-1.2c-2,0-3,0.9-3,2c0,1.3,1.8,1.8,3.6,2.4
			c2.3,0.7,4.9,1.6,4.9,4.2c0,2.2-2.1,4.1-5.9,4.1C57.2,77.8,55.1,77.1,53.3,75.9z"/>
		<path class="st0" d="M68.8,73.2v-7.6h-2.4v-1.8l2.5-0.1l0.3-3.8h2.3v3.8h4.4v1.9h-4.4v7.6c0,1.7,0.6,2.7,2.5,2.7
			c0.6,0,1.2-0.2,1.8-0.4l0.5,1.8c-1,0.3-2,0.5-3,0.5C70,77.8,68.8,75.9,68.8,73.2z"/>
		<path class="st0" d="M77.9,73.9c0-3,3-4.5,9.9-5.1c0-1.8-0.7-3.5-3.3-3.5c-1.7,0.1-3.4,0.6-4.8,1.5l-1.1-1.6
			c1.9-1.1,4.1-1.7,6.3-1.8c3.9,0,5.6,2.2,5.6,5.6v8.4h-2.2L88,75.8h-0.1c-1.5,1.2-3.4,1.9-5.3,2C79.9,77.8,77.9,76.4,77.9,73.9z
			 M87.7,74.1v-3.8c-5.4,0.6-7.2,1.7-7.2,3.4c0,1.6,1.2,2.2,2.8,2.2C85,75.8,86.5,75.2,87.7,74.1z"/>
		<path class="st0" d="M95.1,59.4c0-0.9,0.8-1.5,1.9-1.5s1.9,0.6,1.9,1.5s-0.8,1.5-1.9,1.5S95.1,60.3,95.1,59.4z M95.6,63.8h2.7
			v13.7h-2.7L95.6,63.8z"/>
		<path class="st0" d="M103.7,63.8h2.2l0.2,2h0.1c1.5-1.4,3.4-2.2,5.4-2.3c3.4,0,4.9,1.9,4.9,5.4v8.7h-2.7v-8.4c0-2.6-0.9-3.6-3-3.6
			c-1.6,0-2.8,0.7-4.4,2.1v9.9h-2.7L103.7,63.8z"/>
		<path class="st0" d="M120.8,73.9c0-3,3-4.5,9.9-5.1c0-1.8-0.7-3.5-3.3-3.5c-1.7,0.1-3.4,0.6-4.8,1.5l-1.1-1.6
			c1.9-1.1,4.1-1.7,6.3-1.8c3.9,0,5.6,2.2,5.6,5.6v8.4h-2.2l-0.2-1.6h-0.1c-1.5,1.2-3.4,1.9-5.3,2C122.9,77.8,120.8,76.4,120.8,73.9
			z M130.7,74.1v-3.8c-5.4,0.6-7.2,1.7-7.2,3.4c0,1.6,1.2,2.2,2.8,2.2C127.9,75.8,129.5,75.2,130.7,74.1L130.7,74.1z"/>
		<path class="st0" d="M141.1,76L141.1,76l-0.3,1.4h-2.2V57.4h2.7v5.5l-0.1,2.5c1.4-1.1,3.2-1.8,5.1-1.9c4.2,0,6.4,2.7,6.4,7
			c0,4.7-3.3,7.4-7,7.4C144,77.7,142.4,77.1,141.1,76z M149.8,70.4c0-3-1.2-5-4.2-5c-1.6,0.1-3.1,0.8-4.3,1.9v7.2
			c1.1,0.9,2.5,1.4,3.9,1.4C147.8,75.8,149.8,73.8,149.8,70.4L149.8,70.4z"/>
		<path class="st0" d="M156.7,74.7V57.4h2.7v17.5c0,0.7,0.4,1,0.8,1c0.2,0,0.4,0,0.6-0.1l0.4,1.8c-0.5,0.2-1,0.2-1.6,0.2
			C157.6,77.8,156.7,76.6,156.7,74.7z"/>
		<path class="st0" d="M164,70.6c-0.1-3.9,3.1-7.1,7-7.2c0.1,0,0.2,0,0.2,0c4.1,0,6.4,2.5,6.4,6.4c0,0.4,0,0.9-0.1,1.3h-10.8
			c0.2,2.9,2.3,4.8,5.4,4.8c1.4,0,2.8-0.4,4-1.1l1,1.5c-1.6,0.9-3.5,1.4-5.3,1.4C167.4,77.8,164,75.1,164,70.6z M175.2,69.5
			c0-2.8-1.4-4.2-4-4.2c-2.4,0-4.4,1.8-4.6,4.2H175.2z"/>
		<path id="Path_2" class="st1" d="M63.5,124.6v-4c0,0-30.6-7-42.3-37C21.2,83.6,29.1,112.3,63.5,124.6z"/>
		<path id="Path_7_00000044872918499792102240000007440977657005544629_" class="st2" d="M67.2,121.3"/>
		<path class="st0" d="M82,128.7c1.3,0.2,2.2,0.9,3.2,1.1l2.6,1.5c0,0,4.9,1.9,5.5,1.4c0.6-0.5,0.6-1.4,1.8-1.4s11.1,0.7,12.3,7.8
			c0,0,16.2,2.1,16.8,2.6s3,2.2,3.5,2.2s13,5.5,29-2.2c0,0,0.6,0.1,0-1.1s-2.4-2.2-3-3.9s0.6-6,0.6-7.1c0-1.1-5.9-23-7.7-25.1
			c-7.2-8.6-18.7-12.5-29.6-9.8c0,0-56.3,25.9-53.8,26.2 M62.9,120.5c-0.3,0,0.4,0.2,0.4,0.5l0.3,1.6c0.2,0,0.2,2.7,0.4,2.7
			c0,0,2.4,0.6,3,0.6c0.6,0,8.5-0.9,8.5,0.8l6.1,1.5 M117.3,118.9C115.7,120,91,120,91,120c-1.6-2.2,0.5-6,1.6-7.7s17-6.5,18.6-6
			c1.6,0.5,6,5.5,7.1,7.7S118.8,117.8,117.3,118.9z M137,128.7c-3.3,1.6-6,0-7.1-0.6c-1.1-0.5-3.3-7.6-3.3-7.6c0-1.6,3.8-0.5,4.8,0
			s1.2,2.2,1.8,3.3C133.8,124.9,140.3,127.1,137,128.7z M146.4,118.3c0,0-15.9,0.1-17-0.5c-1.1-0.6-6-15.9-3.8-17
			c2.2-1.1,16.4-0.5,18.6,2.7c2.2,3.3,3.3,9.8,3.8,12.6C148.5,118.9,146.4,118.3,146.4,118.3z M149.2,127.3c-1-0.3-1.2-1.3-1.2-2.2
			c0-0.9,1.1-0.7,1.5-1.6c0.4-0.8,0.1-1.4-0.3-2.5c-0.5-1.2,0.5-1,1.3-1.6c0.9-0.5,1.3,5.5,1.3,6.5
			C151.8,127.1,149.2,127.3,149.2,127.3z"/>
		<path id="Path_10" class="st2" d="M157,143.2c0,0-3,1.4-4.1,1.4l9.8,4.4l3.8-0.5v-1.2L157,143.2z"/>
		<path class="st2" d="M82.6,126.7c-0.3,0.2-0.5,0.5-0.6,0.8c-0.9-0.1-1.8-0.3-2.7-0.6c-1.6-0.6-0.3,0.2-0.8-0.3
			c-0.7-0.5-1.3,0.2-3.1-1.4c-0.4,0-0.7,0.2-0.8,0.5l-4.4-0.6l-3.5-0.1v0.2c0.3,0,0.5,0.1,0.8,0.2c4.5-0.4,15.1,3.3,17.1,4.4
			s51.3,24.8,51.3,24.8h4.4v-1.5l-33-14c0.1-2.7-2.1-4.4-3.1-6s-5.9-2.4-7.6-2.5s-4.4,0.6-5.5,0.6s-3.2-1.1-3.2-1.1"/>
		<path id="Path_16" class="st1" d="M34.4,21.8v31.3c0,0,0.7,1.8,1.4,0V21.8C35.9,21.8,35.4,20.6,34.4,21.8z"/>
		
			<ellipse id="Ellipse_1" transform="matrix(0.2014 -0.9795 0.9795 0.2014 2.5789 38.0027)" class="st1" cx="24.6" cy="17.4" rx="4.5" ry="3.4"/>
		<path id="Path_13" class="st1" d="M21.5,21.8c-0.4-0.1-0.8,0.1-1,0.5c-1,2.6-4.5,12.1-1.9,14.4c3.1,2.8,7.1,6.2,7.1,6.2
			s-1.8,9.8-0.7,10.9s2.5,1,2.9,0s2.8-12.2,2.5-13.2s-6.3-5.8-6.3-5.8l2.5-10.9c0.1-0.4-0.2-0.8-0.6-0.9L21.5,21.8z"/>
		<path id="Path_14" class="st1" d="M18.4,37.3c0,0-1.5,6.1-2.7,7.3c-1.9,2.3-3.5,4.8-5,7.4c-0.1,0.7,0.1,1.4,0.7,1.7
			c0.8,0.5,1.4,0.8,2.2,0s8.3-7.8,7.7-13.9L18.4,37.3z"/>
		<path id="Path_15" class="st1" d="M20.5,21.9c0,0-1.6-3.1-5-0.3s-4.6,6.1-4.6,7.4s0.9,4.7,3.7,4.3s2.8-0.9,2.8-0.9L20.5,21.9z"/>
		<path id="Path_17" class="st1" d="M26.2,27.8c0,0,3.2,3.3,4.2,3c0.9-0.3,6.8-3.6,7.1-4.6s0.6-1.7,0-1.8s-5.2,2.1-5.9,2.7
			s-4.6-3.4-4.6-3.4L26.2,27.8z"/>
		<path id="Path_30" class="st0" d="M35.1,13.2l3.7,2.5c0,0,27.7-24.3,64.7-11.2C103.6,4.4,70.7-10.8,35.1,13.2z"/>
		<path id="Path_1" class="st0" d="M143.9,32.8l8.7-6.9L142,27.2l-7.9-5.6l1.8-3.1l2.1,1.6l1.6-2l-1.5-1.4c0,0,10.5-10,10.2-11.2
			s-16.4,6.4-16.4,6.4l-2.6-2.2l-2.1,1.3l1.4,2l-3.5,1.8c0,0-13-9.8-16.8-8.9s12.8,14.1,12.8,14.1l-0.8,3.9l-3.3-1.3l-0.5,2.2
			l3.8,1.9c0,0-2.5,21.4-0.9,19.4s7.4-13.7,7.4-13.7l1.9,0.6l0.9-1.5l-2.2-1l2.1-4.2l8.5,5.8l2.7,10.4L143.9,32.8z"/>
		<path class="st0" d="M161.9,53.8c-1.4-6.3-3.6-12.4-6.6-18.2l-3.8,2.7c3,4.8,5.4,10,7,15.5C159.7,53.8,160.8,53.8,161.9,53.8z"/>
		<path class="st0" d="M160.2,81.1c-1.7,7.7-5.2,14.8-10.3,20.9c0,0,7.7-7.5,11.5-20.9H160.2z"/>
	</g>
</g>
</svg>
