<?xml version="1.0" encoding="UTF-8"?><svg id="Layer_2" xmlns="http://www.w3.org/2000/svg" viewBox="0 0 177.6 154.94"><defs><style>.cls-1{fill:#fff;}</style></defs><g id="Layer_1-2"><g id="Layer_2-2"><g id="Layer_3"><path class="cls-1" d="M0,76.24l1.4-1.5c1.4,1,3,1.6,4.7,1.6,2.1,0,3.2-1,3.2-2.1,0-1.4-1.9-2-3.7-2.6-2.3-.7-4.8-1.7-4.8-4s2.1-3.9,5.6-3.9c1.8,0,3.5,.5,5,1.5l-1.2,1.5c-1.1-.8-2.4-1.2-3.7-1.2-2,0-3,.9-3,2,0,1.3,1.8,1.8,3.6,2.4,2.3,.7,4.9,1.6,4.9,4.2,0,2.2-2.1,4.1-5.9,4.1-2.2-.1-4.3-.8-6.1-2Z"/><path class="cls-1" d="M15.4,72.74v-8.7h2.7v8.4c0,2.6,.9,3.6,3,3.6,1.6,0,2.8-.7,4.3-2.3v-9.7h2.7v13.7h-2.1l-.2-2.2h-.1c-1.3,1.5-3.3,2.4-5.3,2.5-3.4,.1-5-1.8-5-5.3Z"/><path class="cls-1" d="M33.9,59.34h2.9l7.9,11.6,2.4,3.8h.1c-.1-1.9-.3-4-.3-5.9v-9.5h2.6v18.5h-2.9l-7.9-11.6-2.3-3.9h-.1c.1,1.9,.4,3.8,.4,5.8v9.7h-2.6v-18.5h-.2Z"/><path class="cls-1" d="M53.3,76.24l1.3-1.5c1.4,1,3,1.6,4.8,1.6,2.1,0,3.2-1,3.2-2.1,0-1.4-1.9-2-3.7-2.6-2.3-.7-4.8-1.7-4.8-4s2.1-3.9,5.6-3.9c1.8,0,3.5,.5,5,1.5l-1.3,1.5c-1.1-.8-2.4-1.2-3.7-1.2-2,0-3,.9-3,2,0,1.3,1.8,1.8,3.6,2.4,2.3,.7,4.9,1.6,4.9,4.2,0,2.2-2.1,4.1-5.9,4.1-2.1-.1-4.2-.8-6-2Z"/><path class="cls-1" d="M68.8,73.54v-7.6h-2.4v-1.8l2.5-.1,.3-3.8h2.3v3.8h4.4v1.9h-4.4v7.6c0,1.7,.6,2.7,2.5,2.7,.6,0,1.2-.2,1.8-.4l.5,1.8c-1,.3-2,.5-3,.5-3.3,0-4.5-1.9-4.5-4.6Z"/><path class="cls-1" d="M77.9,74.24c0-3,3-4.5,9.9-5.1,0-1.8-.7-3.5-3.3-3.5-1.7,.1-3.4,.6-4.8,1.5l-1.1-1.6c1.9-1.1,4.1-1.7,6.3-1.8,3.9,0,5.6,2.2,5.6,5.6v8.4h-2.2l-.3-1.6h-.1c-1.5,1.2-3.4,1.9-5.3,2-2.7,0-4.7-1.4-4.7-3.9Zm9.8,.2v-3.8c-5.4,.6-7.2,1.7-7.2,3.4,0,1.6,1.2,2.2,2.8,2.2,1.7-.1,3.2-.7,4.4-1.8Z"/><path class="cls-1" d="M95.1,59.74c0-.9,.8-1.5,1.9-1.5s1.9,.6,1.9,1.5-.8,1.5-1.9,1.5-1.9-.6-1.9-1.5Zm.5,4.4h2.7v13.7h-2.7v-13.7Z"/><path class="cls-1" d="M103.7,64.14h2.2l.2,2h.1c1.5-1.4,3.4-2.2,5.4-2.3,3.4,0,4.9,1.9,4.9,5.4v8.7h-2.7v-8.4c0-2.6-.9-3.6-3-3.6-1.6,0-2.8,.7-4.4,2.1v9.9h-2.7v-13.8Z"/><path class="cls-1" d="M120.8,74.24c0-3,3-4.5,9.9-5.1,0-1.8-.7-3.5-3.3-3.5-1.7,.1-3.4,.6-4.8,1.5l-1.1-1.6c1.9-1.1,4.1-1.7,6.3-1.8,3.9,0,5.6,2.2,5.6,5.6v8.4h-2.2l-.2-1.6h-.1c-1.5,1.2-3.4,1.9-5.3,2-2.7,0-4.8-1.4-4.8-3.9Zm9.9,.2v-3.8c-5.4,.6-7.2,1.7-7.2,3.4,0,1.6,1.2,2.2,2.8,2.2,1.6-.1,3.2-.7,4.4-1.8h0Z"/><path class="cls-1" d="M141.1,76.34h0l-.3,1.4h-2.2v-20h2.7v5.5l-.1,2.5c1.4-1.1,3.2-1.8,5.1-1.9,4.2,0,6.4,2.7,6.4,7,0,4.7-3.3,7.4-7,7.4-1.7-.2-3.3-.8-4.6-1.9Zm8.7-5.6c0-3-1.2-5-4.2-5-1.6,.1-3.1,.8-4.3,1.9v7.2c1.1,.9,2.5,1.4,3.9,1.4,2.6-.1,4.6-2.1,4.6-5.5h0Z"/><path class="cls-1" d="M156.7,75.04v-17.3h2.7v17.5c0,.7,.4,1,.8,1,.2,0,.4,0,.6-.1l.4,1.8c-.5,.2-1,.2-1.6,.2-2,0-2.9-1.2-2.9-3.1Z"/><path class="cls-1" d="M164,70.94c-.1-3.9,3.1-7.1,7-7.2h.2c4.1,0,6.4,2.5,6.4,6.4,0,.4,0,.9-.1,1.3h-10.8c.2,2.9,2.3,4.8,5.4,4.8,1.4,0,2.8-.4,4-1.1l1,1.5c-1.6,.9-3.5,1.4-5.3,1.4-4.4,.1-7.8-2.6-7.8-7.1Zm11.2-1.1c0-2.8-1.4-4.2-4-4.2-2.4,0-4.4,1.8-4.6,4.2h8.6Z"/><path id="Path_2" class="cls-1" d="M63.5,124.94v-4s-30.6-7-42.3-37c0,0,7.9,28.7,42.3,41Z"/><path class="cls-1" d="M82,129.04c1.3,.2,2.2,.9,3.2,1.1l2.6,1.5s4.9,1.9,5.5,1.4,.6-1.4,1.8-1.4,11.1,.7,12.3,7.8c0,0,16.2,2.1,16.8,2.6s3,2.2,3.5,2.2,13,5.5,29-2.2c0,0,.6,.1,0-1.1s-2.4-2.2-3-3.9,.6-6,.6-7.1-5.9-23-7.7-25.1c-7.2-8.6-18.7-12.5-29.6-9.8,0,0-56.3,25.9-53.8,26.2m-.3-.4c-.3,0,.4,.2,.4,.5l-.18,1.49c-.48,.02,.18,2.11,.38,2.11,0,0,2.9,1.3,3.5,1.3s8.5-.9,8.5,.8l6.1,1.5m35.7-9.3c-1.6,1.1-26.3,1.1-26.3,1.1-1.6-2.2,.5-6,1.6-7.7s17-6.5,18.6-6,6,5.5,7.1,7.7,.5,3.8-1,4.9Zm19.7,9.8c-3.3,1.6-6,0-7.1-.6-1.1-.5-3.3-7.6-3.3-7.6,0-1.6,3.8-.5,4.8,0s1.2,2.2,1.8,3.3,7.1,3.3,3.8,4.9Zm9.4-10.4s-15.9,.1-17-.5-6-15.9-3.8-17,16.4-.5,18.6,2.7c2.2,3.3,3.3,9.8,3.8,12.6,.5,2.8-1.6,2.2-1.6,2.2Zm2.8,9c-1-.3-1.2-1.3-1.2-2.2s1.1-.7,1.5-1.6c.4-.8,.1-1.4-.3-2.5-.5-1.2,.5-1,1.3-1.6,.9-.5,1.3,5.5,1.3,6.5,0,1.2-2.6,1.4-2.6,1.4Z"/><path id="Path_10" class="cls-1" d="M157,143.54s-3,1.4-4.1,1.4l9.8,4.4,3.8-.5v-1.2l-9.5-4.1Z"/><path class="cls-1" d="M82.6,127.04c-.3,.2-.5,.5-.6,.8-.9-.1-1.8-.3-2.7-.6-1.6-.6-.3,.2-.8-.3-.7-.5-1.3,.2-3.1-1.4-.4,0-.7,.2-.8,.5l-4.4-.6-3.5-.1v.2c.3,0,.5,.1,.8,.2,4.5-.4,15.1,3.3,17.1,4.4s51.3,24.8,51.3,24.8h4.4v-1.5l-33-14c.1-2.7-2.1-4.4-3.1-6s-5.9-2.4-7.6-2.5-4.4,.6-5.5,.6-3.2-1.1-3.2-1.1"/><path id="Path_16" class="cls-1" d="M34.4,22.14v31.3s.7,1.8,1.4,0V22.14c.1,0-.4-1.2-1.4,0Z"/><ellipse id="Ellipse_1" class="cls-1" cx="24.58" cy="17.75" rx="4.5" ry="3.4" transform="translate(2.24 38.25) rotate(-78.38)"/><path id="Path_13" class="cls-1" d="M21.5,22.14c-.4-.1-.8,.1-1,.5-1,2.6-4.5,12.1-1.9,14.4,3.1,2.8,7.1,6.2,7.1,6.2,0,0-1.8,9.8-.7,10.9s2.5,1,2.9,0,2.8-12.2,2.5-13.2-6.3-5.8-6.3-5.8l2.5-10.9c.1-.4-.2-.8-.6-.9l-4.5-1.2Z"/><path id="Path_14" class="cls-1" d="M18.4,37.64s-1.5,6.1-2.7,7.3c-1.9,2.3-3.5,4.8-5,7.4-.1,.7,.1,1.4,.7,1.7,.8,.5,1.4,.8,2.2,0s8.3-7.8,7.7-13.9l-2.9-2.5Z"/><path id="Path_15" class="cls-1" d="M20.5,22.24s-1.6-3.1-5-.3-4.6,6.1-4.6,7.4,.9,4.7,3.7,4.3,2.8-.9,2.8-.9l3.1-10.5Z"/><path id="Path_17" class="cls-1" d="M26.2,28.14s3.2,3.3,4.2,3c.9-.3,6.8-3.6,7.1-4.6s.6-1.7,0-1.8-5.2,2.1-5.9,2.7-4.6-3.4-4.6-3.4l-.8,4.1Z"/><path id="Path_30" class="cls-1" d="M35.1,13.54l3.7,2.5S66.5-8.26,103.5,4.84c.1-.1-32.8-15.3-68.4,8.7Z"/><path id="Path_1" class="cls-1" d="M143.9,33.14l8.7-6.9-10.6,1.3-7.9-5.6,1.8-3.1,2.1,1.6,1.6-2-1.5-1.4s10.5-10,10.2-11.2-16.4,6.4-16.4,6.4l-2.6-2.2-2.1,1.3,1.4,2-3.5,1.8s-13-9.8-16.8-8.9,12.8,14.1,12.8,14.1l-.8,3.9-3.3-1.3-.5,2.2,3.8,1.9s-2.5,21.4-.9,19.4,7.4-13.7,7.4-13.7l1.9,.6,.9-1.5-2.2-1,2.1-4.2,8.5,5.8,2.7,10.4,3.2-9.7Z"/><path class="cls-1" d="M161.9,54.14c-1.4-6.3-3.6-12.4-6.6-18.2l-3.8,2.7c3,4.8,5.4,10,7,15.5h3.4Z"/><path class="cls-1" d="M160.2,81.44c-1.7,7.7-5.2,14.8-10.3,20.9,0,0,7.7-7.5,11.5-20.9h-1.2Z"/></g></g></g></svg>