<?xml version="1.0" encoding="UTF-8"?><svg id="Layer_2" xmlns="http://www.w3.org/2000/svg" viewBox="0 0 120.73 187.8"><g id="Layer_3"><g><g id="Icon_ionic-ios-train" transform="translate(-7.875 -1.022)"><path id="Path_1" d="M118.09,177.7l-20.96-20.12c-2.34-2.25-6.05-2.17-8.3,.17-2.25,2.34-2.17,6.05,.17,8.3h0l2.56,2.47H29.13l2.56-2.47c2.34-2.25,2.41-5.96,.17-8.3-2.25-2.34-5.96-2.41-8.3-.17h0L2.6,177.7c-2.34,2.23-2.43,5.93-.2,8.26l.04,.04c1.1,1.16,2.63,1.82,4.23,1.8,1.52,0,2.97-.58,4.07-1.64l6.16-5.91H103.75l6.16,5.91c1.09,1.05,2.55,1.64,4.07,1.64,1.6,.02,3.13-.64,4.23-1.8,2.26-2.28,2.25-5.96-.03-8.22-.03-.03-.06-.06-.09-.09Z"/><g id="Group_1" transform="translate(7.875 2.25)"><path id="Path_2" d="M94.32,7.11h-7.12c-.01-3.92-3.01-7.1-6.71-7.11H40.26c-3.7,.01-6.7,3.19-6.71,7.11h-6.3C12.43,6.88,.24,19.41,0,35.11v104.84c0,15.68,61.95,15.89,61.95,15.89,0,0,58.78-.21,58.78-15.89V35.1c.15-15.3-11.43-27.83-25.87-27.99-.18,0-.36,0-.54,0ZM60.37,142.16c-11.53,0-20.8-10.29-20.08-22.68,.62-10.62,8.77-19.26,18.79-19.92,11.69-.77,21.4,9.05,21.4,21.28s-9.01,21.32-20.12,21.32h0Zm40.23-71.08c-.01,3.92-3.01,7.1-6.71,7.11H26.83c-3.7-.01-6.7-3.19-6.71-7.11v-28.43c.01-3.92,3.01-7.1,6.71-7.11H93.9c3.7,.01,6.7,3.19,6.71,7.11v28.43Z"/></g></g><circle cx="60.33" cy="119.2" r="35.43"/></g></g></svg>