<svg xmlns="http://www.w3.org/2000/svg" width="161" height="161" viewBox="0 0 161 161"><defs><style>.cls-1{fill:#005523;}.cls-2{fill:none;stroke:#fff;stroke-miterlimit:10.01;stroke-width:4px;}</style></defs><g id="Layer_3" data-name="Layer 3"><g id="Group_30" data-name="Group 30"><circle id="Ellipse_3" data-name="Ellipse 3" class="cls-1" cx="80.5" cy="80.5" r="80.5"/><path id="Path_1" data-name="Path 1" class="cls-2" d="M109.12,99.42l16.22-14.37-20.5,3.66L88.78,78.48l3.28-6.23,4.26,2.88,3-4-3.12-2.7s19.5-20.59,18.68-23S83.36,59.76,83.36,59.76l-5.25-4.14L74.18,58.4l3,3.81-6.62,4S44,48.31,36.62,50.56,63.21,76.9,63.21,76.9l-1.14,7.66-6.72-2.12-.67,4.38,7.7,3.39s-2.76,42.11.19,38.07,13.05-27.5,13.05-27.5l3.82.93,1.64-3.12-4.43-1.77,3.6-8.42L97.47,98.81l6.4,20Z"/></g></g></svg>